# xmcd CD database file
#
# Track frame offsets:
#	187
#	24725
#	38512
#	73972
#	96870
#	115855
#	120505
#	125970
#	138582
#	159040
#	182982
#
# Disc length: 2564 seconds
#
# Revision: 2
# Processed by: cddbd v1.5.2PL0 Copyright (c) Steve Scherf et al.
# Submitted via: CDex 1.70beta2
#
DISCID=9a0a020b
DTITLE=Popol Vuh - For You And Me
DYEAR=1991
DGENRE=New Age
TTITLE0=For You and Me
TTITLE1=Wind of the Stars in Their Eyes
TTITLE2=Little Bazaar!
TTITLE3=Compassion
TTITLE4=When Love is Calling You
TTITLE5=In Your Eyes
TTITLE6=Om Mani Padme Hum 1
TTITLE7=Om Mani Padme Hum 2
TTITLE8=Om Mani Padme Hum 3
TTITLE9=Om Mani Padme Hum 4
TTITLE10=For You
EXTD=YEAR: 1991
EXTT0=
EXTT1=
EXTT2=
EXTT3=
EXTT4=
EXTT5=
EXTT6=
EXTT7=
EXTT8=
EXTT9=
EXTT10=
PLAYORDER=
